{
  "accessors": [
    {
      "bufferView": 2,
      "componentType": 5126,
      "count": 2079,
      "max": [
        0.15479573607444763,
        0.1535375863313675,
        0.15511661767959595
      ],
      "min": [
        -0.1579352617263794,
        -0.15916568040847778,
        -0.1577087640762329
      ],
      "type": "VEC3"
    },
    {
      "bufferView": 2,
      "byteOffset": 24948,
      "componentType": 5126,
      "count": 2079,
      "max": [
        0.9990065693855286,
        0.9995393753051758,
        0.9997968673706055
      ],
      "min": [
        -0.9999338388442993,
        -0.9996733665466309,
        -0.9997490644454956
      ],
      "type": "VEC3"
    },
    {
      "bufferView": 3,
      "componentType": 5126,
      "count": 2079,
      "max": [
        0.9842521548271179,
        0.9962385892868042,
        0.9922844171524048,
        1.0
      ],
      "min": [
        -0.9998646974563599,
        -0.9997051954269409,
        -0.9931302070617676,
        -1.0
      ],
      "type": "VEC4"
    },
    {
      "bufferView": 1,
      "componentType": 5126,
      "count": 2079,
      "max": [
        0.9911597371101379,
        0.9883741736412048
      ],
      "min": [
        0.012275910004973412,
        0.011083215475082397
      ],
      "type": "VEC2"
    },
    {
      "bufferView": 1,
      "byteOffset": 16632,
      "componentType": 5126,
      "count": 2079,
      "max": [
        0.9911597371101379,
        0.9883741736412048
      ],
      "min": [
        0.012275910004973412,
        0.011083215475082397
      ],
      "type": "VEC2"
    },
    {
      "bufferView": 0,
      "componentType": 5125,
      "count": 9720,
      "type": "SCALAR"
    }
  ],
  "asset": {
    "extras": {
      "author": "assetfactory (https://sketchfab.com/assetfactory)",
      "license": "SKETCHFAB Standard (https://sketchfab.com/licenses)",
      "source": "https://sketchfab.com/3d-models/generic-soccer-ball-c01c0245bed24349a4914a03c5791188",
      "title": "Generic Soccer Ball"
    },
    "generator": "Sketchfab-16.33.0",
    "version": "2.0"
  },
  "bufferViews": [
    {
      "buffer": 0,
      "byteLength": 38880,
      "name": "floatBufferViews",
      "target": 34963
    },
    {
      "buffer": 0,
      "byteLength": 33264,
      "byteOffset": 38880,
      "byteStride": 8,
      "name": "floatBufferViews",
      "target": 34962
    },
    {
      "buffer": 0,
      "byteLength": 49896,
      "byteOffset": 72144,
      "byteStride": 12,
      "name": "floatBufferViews",
      "target": 34962
    },
    {
      "buffer": 0,
      "byteLength": 33264,
      "byteOffset": 122040,
      "byteStride": 16,
      "name": "floatBufferViews",
      "target": 34962
    }
  ],
  "buffers": [
    {
      "byteLength": 155304,
      "uri": "scene.bin"
    }
  ],
  "images": [
    {
      "uri": "textures/ball_baseColor.jpeg"
    },
    {
      "uri": "textures/ball_metallicRoughness.png"
    },
    {
      "uri": "textures/ball_normal.png"
    }
  ],
  "materials": [
    {
      "doubleSided": true,
      "name": "ball",
      "normalTexture": {
        "index": 2
      },
      "occlusionTexture": {
        "index": 1
      },
      "pbrMetallicRoughness": {
        "baseColorTexture": {
          "index": 0
        },
        "metallicFactor": 0.0,
        "metallicRoughnessTexture": {
          "index": 1
        },
        "roughnessFactor": 0.1788854381999832
      }
    }
  ],
  "meshes": [
    {
      "name": "Ball_ball_0",
      "primitives": [
        {
          "attributes": {
            "NORMAL": 1,
            "POSITION": 0,
            "TANGENT": 2,
            "TEXCOORD_0": 3,
            "TEXCOORD_1": 4
          },
          "indices": 5,
          "material": 0,
          "mode": 4
        }
      ]
    }
  ],
  "nodes": [
    {
      "children": [
        1
      ],
      "matrix": [
        1.0,
        0.0,
        0.0,
        0.0,
        0.0,
        2.220446049250313e-16,
        -1.0,
        0.0,
        0.0,
        1.0,
        2.220446049250313e-16,
        0.0,
        0.0,
        0.0,
        0.0,
        1.0
      ],
      "name": "Sketchfab_model"
    },
    {
      "children": [
        2
      ],
      "matrix": [
        1.0,
        0.0,
        0.0,
        0.0,
        0.0,
        0.0,
        1.0,
        0.0,
        0.0,
        -1.0,
        0.0,
        0.0,
        0.0,
        0.0,
        0.0,
        1.0
      ],
      "name": "SoccerBall.fbx"
    },
    {
      "children": [
        3
      ],
      "name": "RootNode"
    },
    {
      "children": [
        4
      ],
      "matrix": [
        563.211181640625,
        0.0,
        0.0,
        0.0,
        0.0,
        -9.175874835396679e-05,
        -563.2111816406176,
        0.0,
        0.0,
        563.2111816406176,
        -9.175874835396679e-05,
        0.0,
        0.0,
        0.0,
        0.0,
        1.0
      ],
      "name": "Ball"
    },
    {
      "mesh": 0,
      "name": "Ball_ball_0"
    }
  ],
  "samplers": [
    {
      "magFilter": 9729,
      "minFilter": 9987,
      "wrapS": 10497,
      "wrapT": 10497
    }
  ],
  "scene": 0,
  "scenes": [
    {
      "name": "Sketchfab_Scene",
      "nodes": [
        0
      ]
    }
  ],
  "textures": [
    {
      "sampler": 0,
      "source": 0
    },
    {
      "sampler": 0,
      "source": 1
    },
    {
      "sampler": 0,
      "source": 2
    }
  ]
}
