{
  "accessors": [
    {
      "bufferView": 2,
      "componentType": 5126,
      "count": 121,
      "max": [
        0.5,
        0.0,
        0.5
      ],
      "min": [
        -0.5,
        0.0,
        -0.5
      ],
      "type": "VEC3"
    },
    {
      "bufferView": 2,
      "byteOffset": 1452,
      "componentType": 5126,
      "count": 121,
      "max": [
        0.0,
        1.0,
        0.0
      ],
      "min": [
        0.0,
        1.0,
        0.0
      ],
      "type": "VEC3"
    },
    {
      "bufferView": 1,
      "componentType": 5126,
      "count": 121,
      "max": [
        1.0,
        1.0
      ],
      "min": [
        0.0,
        0.0
      ],
      "type": "VEC2"
    },
    {
      "bufferView": 0,
      "componentType": 5125,
      "count": 600,
      "type": "SCALAR"
    },
    {
      "bufferView": 2,
      "byteOffset": 2904,
      "componentType": 5126,
      "count": 1052,
      "max": [
        0.5,
        0.4986605644226074,
        0.5
      ],
      "min": [
        -0.5,
        -0.4999997615814209,
        -0.5
      ],
      "type": "VEC3"
    },
    {
      "bufferView": 2,
      "byteOffset": 15528,
      "componentType": 5126,
      "count": 1052,
      "max": [
        1.0,
        0.11184647679328918,
        1.0
      ],
      "min": [
        -1.0,
        -1.0,
        -1.0
      ],
      "type": "VEC3"
    },
    {
      "bufferView": 1,
      "byteOffset": 968,
      "componentType": 5126,
      "count": 1052,
      "max": [
        0.9470884799957275,
        0.998007595539093
      ],
      "min": [
        0.0018903962336480618,
        0.0019931187853217125
      ],
      "type": "VEC2"
    },
    {
      "bufferView": 0,
      "byteOffset": 2400,
      "componentType": 5125,
      "count": 5133,
      "type": "SCALAR"
    },
    {
      "bufferView": 2,
      "byteOffset": 28152,
      "componentType": 5126,
      "count": 121,
      "max": [
        0.49893563985824585,
        0.5000002384185791,
        0.49893566966056824
      ],
      "min": [
        -0.49893566966056824,
        0.5000002384185791,
        -0.49893566966056824
      ],
      "type": "VEC3"
    },
    {
      "bufferView": 2,
      "byteOffset": 29604,
      "componentType": 5126,
      "count": 121,
      "max": [
        0.013467198237776756,
        1.0,
        0.013467108830809593
      ],
      "min": [
        -0.013467223383486271,
        0.9998200535774231,
        -0.01346710603684187
      ],
      "type": "VEC3"
    },
    {
      "bufferView": 1,
      "byteOffset": 9384,
      "componentType": 5126,
      "count": 121,
      "max": [
        0.3309018313884735,
        0.9980079531669617
      ],
      "min": [
        0.0018903962336480618,
        0.6689964532852173
      ],
      "type": "VEC2"
    },
    {
      "bufferView": 0,
      "byteOffset": 22932,
      "componentType": 5125,
      "count": 600,
      "type": "SCALAR"
    },
    {
      "bufferView": 2,
      "byteOffset": 31056,
      "componentType": 5126,
      "count": 96,
      "max": [
        0.49946779012680054,
        0.5000002384185791,
        0.4994678497314453
      ],
      "min": [
        -0.4994678497314453,
        0.4979066848754883,
        -0.4994678497314453
      ],
      "type": "VEC3"
    },
    {
      "bufferView": 2,
      "byteOffset": 32208,
      "componentType": 5126,
      "count": 96,
      "max": [
        0.9293620586395264,
        0.9999094009399414,
        0.9293559193611145
      ],
      "min": [
        -0.9293621182441711,
        0.2969013750553131,
        -0.9293559193611145
      ],
      "type": "VEC3"
    },
    {
      "bufferView": 1,
      "byteOffset": 10352,
      "componentType": 5126,
      "count": 96,
      "max": [
        0.9469594955444336,
        0.665208637714386
      ],
      "min": [
        0.0020657661370933056,
        0.0019920319318771362
      ],
      "type": "VEC2"
    },
    {
      "bufferView": 0,
      "byteOffset": 25332,
      "componentType": 5125,
      "count": 264,
      "type": "SCALAR"
    },
    {
      "bufferView": 2,
      "byteOffset": 33360,
      "componentType": 5126,
      "count": 53,
      "max": [
        0.4993955194950104,
        0.4986605644226074,
        0.4993954300880432
      ],
      "min": [
        -0.4998573958873749,
        0.49431490898132324,
        -0.4998573958873749
      ],
      "type": "VEC3"
    },
    {
      "bufferView": 2,
      "byteOffset": 33996,
      "componentType": 5126,
      "count": 53,
      "max": [
        0.7026737332344055,
        0.11184647679328918,
        0.7026318311691284
      ],
      "min": [
        -0.9981169104576111,
        0.05020089074969292,
        -0.9981169700622559
      ],
      "type": "VEC3"
    },
    {
      "bufferView": 1,
      "byteOffset": 11120,
      "componentType": 5126,
      "count": 53,
      "max": [
        0.6680266857147217,
        0.6647666096687317
      ],
      "min": [
        0.28203123807907104,
        0.0024326308630406857
      ],
      "type": "VEC2"
    },
    {
      "bufferView": 0,
      "byteOffset": 26388,
      "componentType": 5125,
      "count": 147,
      "type": "SCALAR"
    }
  ],
  "asset": {
    "extras": {
      "author": "mostafasami (https://sketchfab.com/mostafasami)",
      "license": "CC-BY-4.0 (http://creativecommons.org/licenses/by/4.0/)",
      "source": "https://sketchfab.com/3d-models/isolated-stadium-56b08e4924b14532b4a4d42d563f7bcf",
      "title": "Isolated Stadium"
    },
    "generator": "Sketchfab-14.64.0",
    "version": "2.0"
  },
  "bufferViews": [
    {
      "buffer": 0,
      "byteLength": 26976,
      "name": "floatBufferViews",
      "target": 34963
    },
    {
      "buffer": 0,
      "byteLength": 11544,
      "byteOffset": 26976,
      "byteStride": 8,
      "name": "floatBufferViews",
      "target": 34962
    },
    {
      "buffer": 0,
      "byteLength": 34632,
      "byteOffset": 38520,
      "byteStride": 12,
      "name": "floatBufferViews",
      "target": 34962
    }
  ],
  "buffers": [
    {
      "byteLength": 73152,
      "uri": "scene.bin"
    }
  ],
  "extensionsUsed": [
    "KHR_materials_specular",
    "KHR_texture_transform"
  ],
  "images": [
    {
      "uri": "textures/rsMaterial2_baseColor.png"
    },
    {
      "uri": "textures/Dried_Grass_On_Damp_Soil_Mat_baseColor.jpeg"
    },
    {
      "uri": "textures/Artificial_Turf_Mat1_baseColor.jpeg"
    }
  ],
  "materials": [
    {
      "alphaCutoff": 1.0,
      "alphaMode": "MASK",
      "doubleSided": true,
      "extensions": {
        "KHR_materials_specular": {
          "specularColorFactor": [
            1.0,
            1.0,
            1.0
          ],
          "specularFactor": 0.15085760261364606
        }
      },
      "name": "rsMaterial2",
      "pbrMetallicRoughness": {
        "baseColorTexture": {
          "index": 0
        },
        "metallicFactor": 0.6628591629993539
      }
    },
    {
      "doubleSided": true,
      "extensions": {
        "KHR_materials_specular": {
          "specularColorFactor": [
            1.0,
            1.0,
            1.0
          ],
          "specularFactor": 0.17523862929867975
        }
      },
      "name": "Dried_Grass_On_Damp_Soil_Mat",
      "pbrMetallicRoughness": {
        "baseColorTexture": {
          "extensions": {
            "KHR_texture_transform": {
              "scale": [
                3.000000000000003,
                2.0000000000000027
              ]
            }
          },
          "index": 1
        },
        "metallicFactor": 0.08990503590106179
      }
    },
    {
      "doubleSided": true,
      "name": "Artificial_Turf_Mat1",
      "pbrMetallicRoughness": {
        "baseColorTexture": {
          "extensions": {
            "KHR_texture_transform": {
              "scale": [
                5,
                5
              ]
            }
          },
          "index": 2
        },
        "metallicFactor": 0.0
      }
    },
    {
      "doubleSided": true,
      "name": "rsMaterial1",
      "pbrMetallicRoughness": {
        "metallicFactor": 0.0,
        "roughnessFactor": 0.4860967195328595
      }
    },
    {
      "doubleSided": true,
      "name": "lambert1",
      "pbrMetallicRoughness": {
        "baseColorFactor": [
          0.5,
          0.5,
          0.5,
          1.0
        ],
        "metallicFactor": 0.0,
        "roughnessFactor": 0.6
      }
    }
  ],
  "meshes": [
    {
      "name": "pPlane1_rsMaterial2_0",
      "primitives": [
        {
          "attributes": {
            "NORMAL": 1,
            "POSITION": 0,
            "TEXCOORD_0": 2
          },
          "indices": 3,
          "material": 0,
          "mode": 4
        }
      ]
    },
    {
      "name": "pCube1_Dried_Grass_On_Damp_Soil_Mat_0",
      "primitives": [
        {
          "attributes": {
            "NORMAL": 5,
            "POSITION": 4,
            "TEXCOORD_0": 6
          },
          "indices": 7,
          "material": 1,
          "mode": 4
        }
      ]
    },
    {
      "name": "pCube1_Artificial_Turf_Mat1_0",
      "primitives": [
        {
          "attributes": {
            "NORMAL": 9,
            "POSITION": 8,
            "TEXCOORD_0": 10
          },
          "indices": 11,
          "material": 2,
          "mode": 4
        }
      ]
    },
    {
      "name": "pCube1_rsMaterial1_0",
      "primitives": [
        {
          "attributes": {
            "NORMAL": 13,
            "POSITION": 12,
            "TEXCOORD_0": 14
          },
          "indices": 15,
          "material": 3,
          "mode": 4
        }
      ]
    },
    {
      "name": "pCube1_lambert1_0",
      "primitives": [
        {
          "attributes": {
            "NORMAL": 17,
            "POSITION": 16,
            "TEXCOORD_0": 18
          },
          "indices": 19,
          "material": 4,
          "mode": 4
        }
      ]
    }
  ],
  "nodes": [
    {
      "children": [
        1
      ],
      "matrix": [
        1.0,
        0.0,
        0.0,
        0.0,
        0.0,
        2.220446049250313e-16,
        -1.0,
        0.0,
        0.0,
        1.0,
        2.220446049250313e-16,
        0.0,
        0.0,
        0.0,
        0.0,
        1.0
      ],
      "name": "Sketchfab_model"
    },
    {
      "children": [
        2
      ],
      "matrix": [
        0.009999999776482582,
        0.0,
        0.0,
        0.0,
        0.0,
        0.0,
        0.009999999776482582,
        0.0,
        0.0,
        -0.009999999776482582,
        0.0,
        0.0,
        0.0,
        0.0,
        0.0,
        1.0
      ],
      "name": "bad761008ce94a0a8faeb632d56d2781.fbx"
    },
    {
      "children": [
        3
      ],
      "name": "RootNode"
    },
    {
      "children": [
        4,
        6
      ],
      "matrix": [
        1.0,
        0.0,
        0.0,
        0.0,
        0.0,
        1.3319594860076904,
        0.0,
        0.0,
        0.0,
        0.0,
        1.1786137819290161,
        0.0,
        0.0,
        0.0,
        0.0,
        1.0
      ],
      "name": "group1"
    },
    {
      "children": [
        5
      ],
      "matrix": [
        1.1671320343292681e-14,
        0.0,
        26.281476974487305,
        0.0,
        0.0,
        26.281476974487305,
        0.0,
        0.0,
        -26.281476974487305,
        0.0,
        1.1671320343292681e-14,
        0.0,
        -0.05612559989094734,
        3.433211088180542,
        -0.03246920183300972,
        1.0
      ],
      "name": "pPlane1"
    },
    {
      "mesh": 0,
      "name": "pPlane1_rsMaterial2_0"
    },
    {
      "children": [
        7,
        8,
        9,
        10
      ],
      "matrix": [
        27.247652053833008,
        0.0,
        0.0,
        0.0,
        0.0,
        1.8108364343643188,
        0.0,
        0.0,
        0.0,
        0.0,
        27.99492645263672,
        0.0,
        0.0,
        2.5085203647613525,
        0.0,
        1.0
      ],
      "name": "pCube1"
    },
    {
      "mesh": 1,
      "name": "pCube1_Dried_Grass_On_Damp_Soil_Mat_0"
    },
    {
      "mesh": 2,
      "name": "pCube1_Artificial_Turf_Mat1_0"
    },
    {
      "mesh": 3,
      "name": "pCube1_rsMaterial1_0"
    },
    {
      "mesh": 4,
      "name": "pCube1_lambert1_0"
    }
  ],
  "samplers": [
    {
      "magFilter": 9729,
      "minFilter": 9987,
      "wrapS": 10497,
      "wrapT": 10497
    }
  ],
  "scene": 0,
  "scenes": [
    {
      "name": "Sketchfab_Scene",
      "nodes": [
        0
      ]
    }
  ],
  "textures": [
    {
      "sampler": 0,
      "source": 0
    },
    {
      "sampler": 0,
      "source": 1
    },
    {
      "sampler": 0,
      "source": 2
    }
  ]
}
